<?xml version="1.0" encoding="utf-8"?>
<!DOCTYPE svg PUBLIC "-//W3C//DTD SVG 1.0//EN" "http://www.w3.org/TR/2001/REC-SVG-20010904/DTD/svg10.dtd">
<svg aria-labelledby="title desc" fill-rule="evenodd" height="3.84375in" preserveAspectRatio="none" stroke-linecap="round" viewBox="0 0 2370 2214" width="4.114583333333333in" xmlns="http://www.w3.org/2000/svg" xmlns:xlink="http://www.w3.org/1999/xlink"><title>baffled,cartoons,confused,emotions,gestures,needs help,people,perplexed,puzzled,question marks,Screen Beans®</title><desc>Original keywords: baffled,cartoons,confused,emotions,gestures,needs help,people,perplexed,puzzled,question marks,Screen Beans®. This clipart was ripped from the Microsoft website, then uploaded to https://archive.org/details/MS_Clipart_Collection. (The original WMF file can be found within that item, under the folder MC900078811). From there, it was then converted by Trumad to svg using https://github.com/hidekatsu-izuno/wmf2svg in a bulk operation. All the converted files can be found at https://archive.org/details/MS_Clipart_Collection_SVG</desc>
<style type="text/css">
.brush0 { fill: rgb(255,255,255); }
.pen0 { stroke: rgb(0,0,0); stroke-width: 1; stroke-linejoin: round; }
.brush1 { fill: rgb(172,130,66); }
.pen1 { stroke: none; }
.brush2 { fill: rgb(202,168,117); }
.brush3 { fill: rgb(0,0,0); }
.brush4 { fill: rgb(206,206,206); }
.brush5 { fill: rgb(255,255,255); }
.brush6 { fill: none; }
</style>
<g>
<polygon class="pen1 brush1" points="1361,1627 1363,1830 1455,1903 1547,1951 1692,2024 1862,1912 2046,1771 2177,1674 2184,1515 2090,1574 1998,1638 1893,1718 1696,1612 1619,1647 1486,1698"/>
<polygon class="pen1 brush2" points="1352,1363 1132,1503 1266,1570 1377,1623 1491,1705 1707,1603 1564,1523 1449,1443"/>
<polygon class="pen1 brush2" points="1711,1605 1889,1493 2016,1425 2109,1353 2174,1302 2311,1355 2359,1379 2291,1447 2166,1524 2049,1596 1948,1675 1889,1717 1724,1631"/>
<polygon class="pen1 brush2" points="1359,1362 1548,1268 1721,1191 1899,1126 1715,1119 1622,1157 1451,1211 1350,1252 1227,1326"/>
<polygon class="pen1 brush2" points="1899,1136 2059,1236 2172,1314 2300,1227 2087,1107 1965,1029"/>
<polygon class="pen1 brush1" points="1367,1364 1461,1457 1590,1541 1708,1609 1848,1530 1927,1477 2037,1422 2181,1298 1958,1173 1886,1131 1652,1219 1481,1292 1343,1362"/>
<polygon class="pen1 brush3" points="1916,1121 1974,1048 2182,1168 2274,1225 2155,1300 2162,1318 2173,1320 2312,1227 2294,1201 2139,1121 1967,1015 1947,1035 1894,1126"/>
<polygon class="pen1 brush3" points="1899,1124 1728,1111 1504,1184 1357,1238 1245,1300 1206,1327 1215,1334 1344,1367 1357,1351 1248,1320 1324,1274 1399,1240 1524,1198 1667,1153 1726,1127 1870,1133"/>
<polygon class="pen1 brush3" points="1344,1354 1225,1438 1115,1493 1135,1517 1353,1616 1476,1709 1496,1711 1707,1618 1696,1596 1496,1689 1456,1665 1366,1603 1311,1577 1238,1539 1148,1499 1353,1387"/>
<polygon class="pen1 brush3" points="1720,1612 1896,1691 2008,1612 2102,1546 2207,1484 2300,1421 2337,1375 2227,1339 2153,1320 2166,1302 2245,1322 2319,1348 2372,1375 2326,1427 2280,1465 2214,1504 2153,1539 2080,1586 2021,1629 1964,1671 1889,1735 1685,1616"/>
<polygon class="pen1 brush3" points="1363,1357 1473,1443 1597,1529 1705,1593 1808,1540 1889,1481 2013,1417 2156,1311 1985,1196 1882,1132 1899,1112 1945,1150 2046,1211 2184,1311 2079,1395 1961,1467 1873,1516 1703,1622 1573,1543 1435,1443 1337,1377 1337,1350"/>
<polygon class="pen1 brush3" points="1337,1358 1501,1273 1657,1206 1798,1152 1903,1119 1916,1137 1835,1159 1732,1199 1627,1239 1519,1284 1350,1371"/>
<polygon class="pen1 brush3" points="1353,1614 1353,1829 1432,1891 1544,1956 1691,2033 1887,1902 2045,1777 2183,1678 2192,1507 2166,1529 2163,1667 1915,1855 1755,1967 1704,1994 1711,1614 1685,1608 1678,1621 1689,1744 1689,1928 1676,1996 1559,1948 1485,1902 1399,1842 1375,1809 1373,1625"/>
<polygon class="pen1 brush3" points="1549,1397 1557,1350 1580,1310 1618,1288 1665,1288 1710,1300 1744,1317 1781,1304 1805,1267 1838,1240 1890,1228 1941,1232 1988,1267 1994,1304 1978,1366 1929,1387 1917,1366 1947,1354 1966,1319 1959,1282 1935,1257 1884,1251 1848,1269 1817,1306 1799,1329 1777,1343 1732,1347 1695,1335 1661,1319 1622,1319 1592,1341 1576,1378 1586,1411 1622,1436 1537,1415"/>
<polygon class="pen1 brush4" points="828,1651 880,1645 901,1596 961,1590 961,1667 996,1675 1063,1633 1123,1679 1050,1734 1065,1754 1154,1734 1174,1813 1069,1828 1063,1856 1113,1893 1050,1956 1014,1911 996,1917 996,1980 919,1986 923,1919 864,1919 844,1966 765,1925 801,1886 771,1844 716,1852 700,1783 767,1765 773,1706 734,1681 789,1612"/>
<polygon class="pen1 brush3" points="825,1662 892,1655 909,1605 954,1602 952,1672 997,1685 1066,1650 1104,1677 1044,1730 1056,1762 1146,1747 1164,1800 1059,1820 1051,1857 1101,1890 1051,1935 1014,1887 984,1902 989,1970 932,1972 929,1910 862,1902 840,1947 782,1917 812,1882 782,1827 727,1837 720,1785 780,1775 787,1702 752,1677 797,1620 775,1605 720,1685 765,1715 757,1755 690,1775 707,1860 772,1857 787,1880 750,1927 832,1965 855,1970 877,1920 902,1935 914,1987 1007,1985 1007,1920 1014,1917 1051,1962 1131,1887 1116,1865 1071,1842 1086,1830 1186,1815 1156,1717 1064,1740 1059,1737 1134,1677 1064,1620 1044,1632 997,1665 969,1657 969,1582 894,1587 869,1640 825,1640"/>
<polygon class="pen1 brush3" points="830,1665 777,1613 788,1602 860,1656"/>
<ellipse class="pen1 brush3" cx="920" cy="1781" rx="40" ry="26"/>
<polygon class="pen1 brush2" points="56,1565 105,1516 173,1480 228,1498 265,1541 271,1579 259,1646 232,1729 197,1792 146,1857 68,1926 17,1869 140,1754 191,1650 203,1573 185,1553 148,1549 117,1573 103,1610"/>
<polygon class="pen1 brush3" points="99,1599 124,1554 160,1536 197,1548 209,1560 214,1586 203,1645 154,1751 75,1828 38,1866 79,1902 142,1836 207,1749 234,1684 256,1615 265,1568 246,1532 209,1505 160,1493 109,1518 87,1550 60,1580 32,1574 79,1526 115,1493 158,1471 197,1471 226,1487 252,1505 271,1526 283,1562 281,1605 258,1670 234,1744 209,1785 173,1834 115,1894 66,1943 1,1864 73,1797 128,1749 164,1694 179,1647 189,1599 189,1568 173,1560 154,1562 128,1584 105,1623"/>
<polygon class="pen1 brush3" points="63,1565 115,1601 108,1622 32,1572"/>
<polygon class="pen1 brush5" points="189,1986 432,1882 537,1949 602,1972 744,2015 754,2052 556,2174 523,2213 464,2170 404,2121 234,2021"/>
<polygon class="pen1 brush3" points="744,1999 645,1974 562,1948 493,1907 445,1870 417,1886 439,1917 481,1929 560,1966 629,1992 707,2017 738,2027 738,2035 738,2048 711,2066 647,2103 598,2133 550,2164 526,2195 445,2131 350,2078 271,2027 227,1997 196,1984 172,1980 156,1990 174,2003 215,2023 314,2084 390,2127 451,2164 505,2213 532,2217 556,2199 596,2162 659,2131 726,2090 772,2060 768,2041 762,2015"/>
<polygon class="pen1 brush3" points="163,1991 224,1970 310,1934 387,1889 430,1874 442,1876 444,1889 401,1908 344,1940 255,1978 198,2008"/>
<polygon class="pen1 brush5" points="287,1804 354,1737 395,1664 437,1581 455,1495 774,1483 780,1507 737,1627 711,1676 652,1743 591,1816 561,1849 409,1855 342,1849 293,1829"/>
<polygon class="pen1 brush3" points="312,1803 379,1720 427,1622 451,1555 467,1511 530,1499 681,1505 760,1507 740,1572 703,1657 643,1736 584,1803 558,1834 482,1842 328,1834 355,1854 474,1858 570,1852 627,1793 691,1706 742,1633 770,1566 788,1517 794,1492 778,1464 734,1470 603,1480 480,1480 449,1480 431,1517 419,1596 385,1659 340,1730 304,1773 280,1799 286,1823 312,1828"/>
<ellipse class="pen1 brush3" cx="393" cy="356" rx="31" ry="30"/>
<polygon class="pen1 brush3" points="325,264 325,276 362,303 339,334 302,309 289,284 287,257 283,228 281,201 269,189 252,183 233,185 214,208 214,228 227,247 206,278 187,257 175,228 177,195 187,164 219,141 250,135 269,139 289,147 314,170 318,197 318,222 318,241"/>
<polygon class="pen1 brush3" points="1260,267 1264,266 1269,262 1272,260 1277,257 1279,252 1282,246 1283,242 1284,237 1283,231 1282,226 1278,221 1277,217 1272,213 1268,209 1263,207 1260,205 1253,204 1248,205 1244,206 1239,210 1236,212 1231,215 1229,220 1226,226 1225,230 1224,235 1225,241 1226,246 1230,251 1231,255 1236,259 1240,263 1245,265 1248,267 1255,268 1260,267"/>
<polygon class="pen1 brush3" points="1332,153 1319,155 1300,199 1265,180 1284,139 1305,124 1334,116 1361,108 1386,100 1396,87 1400,68 1394,50 1369,35 1346,39 1332,56 1298,42 1315,17 1338,0 1373,-2 1408,0 1433,29 1448,58 1446,79 1440,100 1423,129 1398,135 1373,141 1352,143"/>
<polygon class="pen1 brush3" points="632,500 607,457 593,423 587,397 593,366 607,345 630,324 662,317 697,313 736,322 771,334 797,354 822,377 847,413 863,439 865,471 857,503 840,530 822,548 802,562 767,569 736,567 703,558 681,548 656,535 617,574 582,612 570,633 546,642 525,637 519,621 521,601 546,578 593,548"/>
<polygon class="pen1 brush3" points="819,564 843,552 868,548 897,548 934,558 965,576 996,603 1020,637 1041,675 1063,722 1076,764 1082,813 1082,863 1078,904 1070,940 1057,972 1029,995 1008,1013 965,1025 924,1021 899,1009 878,976 860,942 850,898 860,843 872,807 878,772 874,742 862,712 837,687 817,673 800,651 794,625 794,603 804,582"/>
<polygon class="pen1 brush3" points="758,648 795,601 824,581 845,595 862,650 851,672 795,692 756,721 708,757 681,788 677,806 689,824 702,842 750,875 795,899 837,909 856,905 864,911 868,927 839,952 818,978 812,1009 808,1037 789,1045 774,1037 777,1002 789,964 812,930 764,917 712,897 668,869 646,844 631,808 631,788 643,757 675,727 718,690"/>
<polygon class="pen1 brush3" points="928,569 967,563 1021,549 1039,542 1071,517 1098,478 1106,457 1106,431 1060,403 982,367 932,361 899,366 873,378 856,383 839,372 834,356 860,337 884,335 904,330 910,320 904,287 878,265 850,255 817,256 800,265 793,282 795,300 804,312 795,322 776,325 760,310 756,287 765,255 784,241 800,224 832,216 860,211 873,211 895,230 915,251 949,290 978,327 1023,352 1067,372 1117,396 1145,406 1154,418 1150,462 1137,502 1115,532 1078,569 1026,598 956,618 923,615 899,598 895,578"/>
<polygon class="pen1 brush3" points="967,988 961,965 984,939 1014,941 1035,951 1060,984 1078,1050 1103,1109 1125,1164 1125,1194 1125,1218 1113,1248 1082,1309 1064,1362 1058,1382 1072,1398 1113,1410 1164,1422 1187,1435 1164,1455 1119,1471 1097,1465 1078,1441 1047,1422 1021,1422 1004,1418 996,1398 1008,1376 1029,1346 1047,1321 1070,1261 1078,1224 1082,1194 1076,1164 1058,1129 1027,1097 996,1044"/>
<polygon class="pen1 brush3" points="875,1082 894,1006 906,957 927,945 956,949 971,979 958,1016 944,1082 925,1157 919,1209 919,1282 927,1343 933,1401 940,1419 931,1431 906,1443 883,1470 871,1498 850,1500 812,1482 818,1464 839,1450 877,1419 896,1403 906,1383 906,1343 894,1280 881,1224 875,1173 871,1133"/>
</g>
</svg>