<?xml version="1.0" encoding="utf-8"?>
<!DOCTYPE svg PUBLIC "-//W3C//DTD SVG 1.0//EN" "http://www.w3.org/TR/2001/REC-SVG-20010904/DTD/svg10.dtd">
<svg aria-labelledby="title desc" fill-rule="evenodd" height="2.6458333333333335in" preserveAspectRatio="none" stroke-linecap="round" viewBox="0 0 1914 1524" width="3.3229166666666665in" xmlns="http://www.w3.org/2000/svg" xmlns:xlink="http://www.w3.org/1999/xlink"><title>cartoons,computers,emotions,frustrated,frustrations,gestures,hammering,hammers,hardware,households,PCS,people,persons,science,Screen Beans®,technology,tools</title><desc>Original keywords: cartoons,computers,emotions,frustrated,frustrations,gestures,hammering,hammers,hardware,households,PCS,people,persons,science,Screen Beans®,technology,tools. This clipart was ripped from the Microsoft website, then uploaded to https://archive.org/details/MS_Clipart_Collection. (The original WMF file can be found within that item, under the folder MC900078782). From there, it was then converted by Trumad to svg using https://github.com/hidekatsu-izuno/wmf2svg in a bulk operation. All the converted files can be found at https://archive.org/details/MS_Clipart_Collection_SVG</desc>
<style type="text/css">
.brush0 { fill: rgb(255,255,255); }
.pen0 { stroke: rgb(0,0,0); stroke-width: 1; stroke-linejoin: round; }
.brush1 { fill: rgb(218,218,218); }
.pen1 { stroke: none; }
.brush2 { fill: rgb(191,191,191); }
.brush3 { fill: rgb(0,0,0); }
.brush4 { fill: rgb(216,200,153); }
.brush5 { fill: none; }
</style>
<g>
<polygon class="pen1 brush1" points="175,1199 107,1260 22,1334 22,1397 36,1513 179,1508 339,1491 577,1486 756,1491 818,1376 892,1152 878,1084 851,1057 771,1062 808,892 813,839 794,707 775,609 742,567 717,567 652,578 548,583 480,573 406,569 378,576 315,605 222,630 104,671 59,697 18,741 9,806 9,914 14,1042 23,1117 41,1161 69,1183 102,1192"/>
<polygon class="pen1 brush2" points="97,845 102,773 113,752 145,744 273,740 430,738 522,740 544,754 560,781 584,897 606,1025 611,1106 603,1120 575,1130 440,1127 232,1117 130,1108 113,1087 104,1046 94,945"/>
<polygon class="pen1 brush3" points="8,1334 118,1239 121,1261 46,1329 178,1323 457,1324 605,1313 698,1296 721,1290 830,1071 779,1057 855,1044 883,1068 896,1149 874,1215 803,1429 770,1495 740,1503 515,1499 279,1505 55,1522 22,1524 19,1461 14,1399 13,1366 32,1386 36,1437 43,1491 107,1500 254,1486 378,1476 482,1476 638,1476 737,1475 740,1446 731,1385 723,1318 737,1334 751,1408 764,1446 779,1427 806,1353 846,1248 874,1163 879,1137 865,1077 850,1073 820,1144 768,1237 731,1309 693,1320 557,1337 397,1347 239,1347 60,1348"/>
<polygon class="pen1 brush3" points="183,1226 215,1207 231,1212 221,1236 197,1251 243,1273 312,1276 372,1271 415,1266 496,1258 548,1253 582,1243 615,1222 612,1207 631,1212 626,1263 577,1287 469,1293 359,1304 296,1312 220,1293 183,1282 172,1253"/>
<polygon class="pen1 brush3" points="103,1386 147,1384 149,1426 101,1426"/>
<polygon class="pen1 brush3" points="192,1381 236,1379 238,1421 190,1421"/>
<polygon class="pen1 brush3" points="481,1381 671,1366 676,1398 481,1415"/>
<polygon class="pen1 brush3" points="69,1171 46,1147 32,1106 27,1015 27,864 32,750 46,724 71,691 132,667 240,635 329,612 369,588 440,582 566,593 670,587 714,577 750,587 774,650 789,765 804,856 797,898 769,1001 733,1105 709,1144 693,1163 717,1177 742,1133 780,1040 808,941 818,892 821,846 812,769 797,654 775,591 755,563 722,555 679,568 615,572 533,572 448,560 391,563 362,574 298,605 175,639 57,678 24,719 3,774 0,884 5,988 9,1095 28,1157 47,1190 80,1201 99,1195"/>
<polygon class="pen1 brush3" points="66,1178 184,1186 349,1190 481,1190 599,1176 677,1164 699,1153 699,1096 670,944 637,760 620,693 604,668 401,690 202,695 93,698 55,703 76,676 123,681 259,676 388,668 502,659 611,649 696,610 743,567 762,588 718,614 653,657 633,671 656,769 675,864 691,951 705,1034 718,1096 724,1149 715,1178 625,1200 467,1211 301,1205 180,1205 80,1202"/>
<polygon class="pen1 brush3" points="134,740 296,734 407,729 531,731 550,745 565,767 592,883 612,1015 622,1106 612,1135 587,1141 444,1125 593,1112 601,1108 598,1046 587,958 563,839 544,764 525,753 436,748 315,753 215,750"/>
<polygon class="pen1 brush3" points="308,735 151,735 106,740 98,757 89,792 84,886 89,978 101,1069 121,1106 130,1115 230,1125 359,1130 455,1131 569,1136 564,1122 475,1115 359,1107 198,1106 140,1088 122,1074 116,1048 108,972 106,877 113,781 122,759 227,745"/>
<polygon class="pen1 brush4" points="1659,193 1524,279 1400,343 1339,389 1290,444 1277,480 1299,514 1342,530 1401,458 1459,404 1543,353 1616,314 1707,266 1693,227"/>
<polygon class="pen1 brush2" points="1750,334 1644,187 1623,153 1628,130 1594,125 1575,107 1596,55 1634,26 1681,12 1711,20 1719,68 1745,74 1806,144 1865,230 1898,284 1908,350 1892,406 1868,446 1855,454 1826,439 1839,374 1798,425 1769,460 1748,450 1764,382"/>
<polygon class="pen1 brush3" points="1671,98 1698,74 1709,50 1704,36 1690,20 1661,30 1628,41 1609,69 1600,92 1600,115 1617,122 1636,120 1641,136 1641,150 1665,198 1586,248 1494,307 1382,362 1328,416 1296,454 1295,482 1320,501 1342,509 1366,477 1415,420 1475,376 1548,338 1622,297 1684,264 1665,229 1674,210 1717,264 1752,315 1771,349 1778,386 1764,443 1793,416 1826,371 1827,319 1826,288 1845,324 1851,367 1842,420 1861,433 1870,424 1892,367 1894,319 1884,281 1870,248 1832,201 1797,148 1761,115 1740,93 1731,77 1740,58 1804,125 1854,191 1892,250 1911,296 1916,338 1913,383 1888,444 1856,473 1816,444 1826,397 1774,481 1733,458 1747,409 1750,362 1737,326 1699,281 1619,324 1562,352 1500,387 1443,424 1408,468 1372,506 1344,547 1301,530 1272,504 1263,473 1282,435 1342,373 1405,330 1475,286 1570,239 1636,188 1619,158 1622,139 1584,136 1571,107 1581,74 1600,44 1636,17 1674,6 1703,3 1723,20 1736,39 1726,63 1709,88 1680,115 1650,117"/>
<polygon class="pen1 brush3" points="1756,137 1782,155 1805,181 1808,205 1784,207 1748,176 1732,139"/>
<polygon class="pen1 brush3" points="1104,592 1133,558 1171,533 1209,527 1249,527 1276,538 1291,558 1300,585 1302,614 1296,643 1272,674 1240,701 1201,722 1166,737 1133,735 1115,727 1101,718 1085,701 1075,664 1081,634 1056,648 1024,659 1006,659 995,648 995,634 1017,629 1043,621 1077,606"/>
<polygon class="pen1 brush3" points="1016,774 1042,751 1076,740 1105,742 1137,750 1157,766 1163,790 1148,820 1123,849 1110,884 1110,916 1123,940 1139,954 1152,973 1153,997 1147,1026 1134,1045 1105,1061 1074,1069 1046,1064 1016,1055 991,1031 974,1002 962,964 959,920 964,873 977,836 993,797"/>
<polygon class="pen1 brush3" points="1086,1107 1070,1050 1072,1012 1094,1002 1123,1007 1138,1026 1143,1091 1157,1154 1173,1210 1196,1254 1222,1281 1241,1321 1259,1350 1274,1364 1285,1383 1280,1402 1269,1407 1245,1415 1212,1421 1172,1448 1159,1459 1143,1454 1130,1435 1135,1419 1159,1402 1211,1386 1227,1381 1235,1364 1227,1354 1203,1321 1178,1283 1149,1243 1128,1200 1106,1154"/>
<polygon class="pen1 brush3" points="979,1120 989,1054 1010,1005 1050,991 1068,1012 1063,1054 1030,1110 1014,1178 1009,1231 1010,1253 1028,1291 1038,1326 1038,1367 1035,1386 1040,1402 1038,1419 1020,1421 986,1421 948,1429 928,1440 918,1424 926,1400 951,1388 979,1388 1004,1383 1010,1369 1005,1335 994,1286 974,1250 971,1212 974,1177"/>
<polygon class="pen1 brush3" points="1190,762 1141,762 1099,776 1107,813 1136,820 1193,816 1256,825 1343,846 1371,849 1385,832 1396,790 1404,637 1404,572 1401,522 1420,500 1439,472 1442,451 1444,413 1372,481 1361,518 1380,546 1380,632 1371,695 1363,751 1351,789 1337,813 1299,798 1246,779"/>
<polygon class="pen1 brush3" points="1072,772 1083,794 1072,817 1029,823 1020,785 993,715 969,638 950,576 945,524 958,492 991,463 1101,428 1202,411 1274,395 1320,381 1345,367 1377,354 1401,367 1396,395 1374,421 1345,433 1315,421 1291,414 1231,430 1136,452 1059,476 1001,497 986,516 983,539 996,590 1024,666 1058,734"/>
</g>
</svg>